<svg id="Layer_1" data-name="Layer 1" xmlns="http://www.w3.org/2000/svg" viewBox="0 0 321.76 339.65"><defs><style>.cls-1,.cls-2{fill:none;stroke:#fff;stroke-miterlimit:10;}.cls-1{stroke-width:2.3px;}.cls-2{stroke-width:3px;}</style></defs><title>Hex</title><path class="cls-1" d="M167.89,27.42,277.7,90.79a15.15,15.15,0,0,1,7.52,13.12V230.72a15.15,15.15,0,0,1-7.52,13.12L167.89,307.21a15.15,15.15,0,0,1-15.15,0L42.93,243.84a15.15,15.15,0,0,1-7.54-13.12V103.91a15.15,15.15,0,0,1,7.52-13.12L152.73,27.42A15.15,15.15,0,0,1,167.89,27.42Z"/><path class="cls-2" d="M195.42,203.87V152.29H216v59.54c0,20.38-13.59,18.53-27.79,18.53H146.84c-26.56,0-34,1.85-34-18.53V152.52h22.07v52.36"/><path class="cls-2" d="M216,136v-1.76c0-20.38-1.24-24.7-21.62-24.7H137.58c-20.38,0-24.7,4.32-24.7,24.7V136H216"/><line class="cls-2" x1="134.94" y1="204.88" x2="195.42" y2="203.87"/></svg>