<svg id="Layer_1" data-name="Layer 1" xmlns="http://www.w3.org/2000/svg" viewBox="0 0 321.76 339.65"><defs><style>.cls-1{fill:none;stroke-width:2.3px;}.cls-1,.cls-2{stroke:#fff;stroke-miterlimit:10;}.cls-2{fill:#fff;}</style></defs><title>Hex</title><path class="cls-1" d="M166.41,27.25,276.22,90.62a15.15,15.15,0,0,1,7.52,13.12V230.55a15.15,15.15,0,0,1-7.52,13.12L166.41,307a15.15,15.15,0,0,1-15.15,0L41.45,243.67a15.15,15.15,0,0,1-7.54-13.12V103.74a15.15,15.15,0,0,1,7.52-13.12L151.25,27.25A15.15,15.15,0,0,1,166.41,27.25Z"/><path class="cls-2" d="M110.25,227.54a8.53,8.53,0,0,1-8.53-8.53V192.74H127.3v6.51A2.71,2.71,0,0,0,130,202H187.5a2.75,2.75,0,0,0,2.75-2.74v-6.51h25.57V219a8.57,8.57,0,0,1-8.56,8.53h-97ZM104,195v24a6.24,6.24,0,0,0,6.24,6.24h97.07a6.29,6.29,0,0,0,6.29-6.26V195h-21v4.24a5,5,0,0,1-5,5H130.1a5,5,0,0,1-5-5h0V195H104Z"/><path class="cls-2" d="M216,186.43H190.4l-.15-39.26h25.57Zm-23.36-2.27h21.06l-.14-34.72H192.48Z"/><path class="cls-2" d="M101.8,186.45l-.15-39.28h25.57l.15,39.28Zm2.06-37,.14,34.72h21.06l-.14-34.72Z"/><path class="cls-2" d="M215.79,140.68H190.21V134.9a2.71,2.71,0,0,0-2.69-2.72H130a2.74,2.74,0,0,0-2.74,2.71v5.75H101.69V115.06a8.56,8.56,0,0,1,8.56-8.51h97.09a8.56,8.56,0,0,1,8.53,8.54Zm-23.33-2.29h21.06V115.15a6.27,6.27,0,0,0-6.26-6.26H110.17a6.24,6.24,0,0,0-6.29,6.2v23.29h21.06v-3.52a5,5,0,0,1,5-5h57.49a5,5,0,0,1,5,5v3.54Z"/></svg>