<svg id="Layer_1" data-name="Layer 1" xmlns="http://www.w3.org/2000/svg" viewBox="0 0 321.76 339.65"><defs><style>.cls-1{fill:none;stroke:#fff;stroke-miterlimit:10;stroke-width:2.3px;}.cls-2{fill:#fff;}</style></defs><title>Hex</title><path class="cls-1" d="M168.23,27.28,278.15,90.71a15.16,15.16,0,0,1,7.53,13.13V230.78a15.16,15.16,0,0,1-7.53,13.13L168.23,307.35a15.16,15.16,0,0,1-15.16,0L43.14,243.91a15.16,15.16,0,0,1-7.54-13.13V103.85a15.16,15.16,0,0,1,7.53-13.13L153,27.28A15.16,15.16,0,0,1,168.23,27.28Z"/><polygon class="cls-2" points="128.35 223 110.71 216.67 110.71 190.8 128.35 196.81 128.35 223"/><polygon class="cls-2" points="131.59 223 149.24 216.67 149.24 190.8 131.59 196.81 131.59 223"/><polygon class="cls-2" points="112.51 188.86 130.37 183.85 146.94 189.18 130.37 194.81 112.51 188.86"/><polygon class="cls-2" points="107.35 186.86 89.7 180.53 89.7 154.66 107.35 160.67 107.35 186.86"/><polygon class="cls-2" points="110.59 186.86 128.23 180.53 128.23 154.66 110.59 160.67 110.59 186.86"/><polygon class="cls-2" points="91.51 152.74 109.37 147.71 125.93 153.04 109.37 158.67 91.51 152.74"/><polygon class="cls-2" points="148.52 186.86 130.87 180.53 130.87 154.66 148.52 160.67 148.52 186.86"/><polygon class="cls-2" points="151.75 186.86 169.4 180.53 169.4 154.66 151.75 160.67 151.75 186.86"/><polygon class="cls-2" points="132.69 152.74 150.55 147.71 167.1 153.04 150.55 158.67 132.69 152.74"/><polygon class="cls-2" points="169.52 150.74 151.88 144.4 151.88 118.53 169.52 124.55 169.52 150.74"/><polygon class="cls-2" points="172.76 150.74 190.41 144.4 190.41 118.53 172.76 124.55 172.76 150.74"/><polygon class="cls-2" points="153.7 116.6 171.56 111.57 188.12 116.92 171.56 122.53 153.7 116.6"/><polygon class="cls-2" points="210.71 150.74 193.06 144.4 193.06 118.53 210.71 124.55 210.71 150.74"/><polygon class="cls-2" points="213.94 150.74 231.59 144.4 231.59 118.53 213.94 124.55 213.94 150.74"/><polygon class="cls-2" points="194.87 116.6 212.74 111.57 229.29 116.92 212.74 122.53 194.87 116.6"/></svg>