<svg id="Layer_1" data-name="Layer 1" xmlns="http://www.w3.org/2000/svg" viewBox="0 0 321.76 339.65"><defs><style>.cls-1{fill:none;stroke:#fff;stroke-miterlimit:10;stroke-width:2.3px;}.cls-2{fill:#fff;}</style></defs><title>Hex</title><path class="cls-1" d="M167.33,27.15l110,63.5a15.18,15.18,0,0,1,7.54,13.14V230.84A15.18,15.18,0,0,1,277.35,244l-110,63.5a15.18,15.18,0,0,1-15.18,0L42.13,244a15.18,15.18,0,0,1-7.54-13.14V103.79a15.18,15.18,0,0,1,7.54-13.14l110-63.5A15.18,15.18,0,0,1,167.33,27.15Z"/><path class="cls-2" d="M171.23,172.24a9.15,9.15,0,0,0-7.76,4.9H115.24a14.69,14.69,0,1,1,0-29.39h6.93a23,23,0,0,1,1.63-4.9,17.68,17.68,0,0,1,.41-2,19.07,19.07,0,0,1,17.14-9.8,19.89,19.89,0,0,1,15.92,8.17,30.59,30.59,0,0,1,6.53-2,26.27,26.27,0,0,0-46.93,4.08h-1.63A21.1,21.1,0,0,0,93.6,161.8q0,.33,0,.66a21.78,21.78,0,0,0,21.72,21.66h48.58a8.35,8.35,0,1,0,7.8-11.88Z"/><path class="cls-2" d="M198.18,155.92a30.14,30.14,0,0,0-26.93-16.73,29.37,29.37,0,0,0-29,23.27,23.71,23.71,0,0,0-16.73,9.8h35.52a13.56,13.56,0,0,1,10.2-4.9,13.07,13.07,0,0,1,0,26.12,13.56,13.56,0,0,1-10.2-4.84H121.87a23.26,23.26,0,0,0,22.86,20H197.8a26.36,26.36,0,0,0,.38-52.72Z"/></svg>