<svg id="Layer_1" data-name="Layer 1" xmlns="http://www.w3.org/2000/svg" viewBox="0 0 312.74 339.65"><defs><style>.cls-1,.cls-3{fill:none;}.cls-1,.cls-2,.cls-3,.cls-4{stroke:#fff;stroke-miterlimit:10;}.cls-1{stroke-width:2.3px;}.cls-2,.cls-4{fill:#fff;}.cls-2{stroke-width:2px;}.cls-3{stroke-width:1.5px;}.cls-4{stroke-width:0.25px;}</style></defs><title>BigDataHex</title><path class="cls-1" d="M162.58,35.66l109.21,63a15.06,15.06,0,0,1,7.48,13V237.84a15.06,15.06,0,0,1-7.48,13l-109.21,63a15.06,15.06,0,0,1-15.06,0l-109.21-63a15.06,15.06,0,0,1-7.48-13V111.73a15.06,15.06,0,0,1,7.48-13l109.21-63A15.06,15.06,0,0,1,162.58,35.66Z"/><path class="cls-2" d="M202.74,205.71v-2.27c17.26,0,31.85-13.46,31.85-29.41a28.57,28.57,0,0,0-9.69-20.94,33.11,33.11,0,0,0-25.81-8.3l-.91.09-.27-.88c-5.46-17.59-22.26-23.7-36.52-21.95h-.49l-.37-.31a41.41,41.41,0,0,0-41.45-7.48,43.38,43.38,0,0,0-27.69,34.41l-.09.51-.43.27C78.37,157.06,73,169.25,76.62,181.88a29.92,29.92,0,0,0,29.2,21.56v2.24a32.09,32.09,0,0,1-31.42-23.22c-4.49-15.84,4.61-28.29,14.8-34.77a45.55,45.55,0,0,1,29.1-35.52,43.59,43.59,0,0,1,43.29,7.58c14.84-1.6,32.16,4.73,38.15,22.74a35.75,35.75,0,0,1,26.63,9,30.82,30.82,0,0,1,10.47,22.6C236.79,191.21,221.17,205.71,202.74,205.71Z"/><path class="cls-3" d="M191.85,174.64c0-6.72-12.49-9.7-24-9.63S143.93,168.16,144,175h0l.35,54.6a2.41,2.41,0,0,0,.14.79c1.4,5.9,13.06,8.52,23.9,8.45s22.42-2.85,23.79-8.76a2.41,2.41,0,0,0,.13-.79l-.35-54.48h0Z"/><path class="cls-3" d="M168.29,240c-10.47.07-23.34-2.33-25-9.32a3.2,3.2,0,0,1-.17-1l-.35-54.54c0-7.61,12.54-11.08,25-11.16s25.12,3.2,25.17,10.74l.35,54.68a3.55,3.55,0,0,1-.19,1.15C191.6,237.36,178.78,239.93,168.29,240Zm-.48-73.86c-11.35.07-22.84,3.14-22.8,8.81l.35,54.68a1.32,1.32,0,0,0,0,.42c1.25,5.18,12.42,7.77,22.83,7.71s21.55-2.8,22.7-7.88a1.72,1.72,0,0,0,.1-.54l-.35-54.68C190.69,169,179.17,166.06,167.81,166.14Z"/><path class="cls-3" d="M192,174.89c-.27,2.36-9,7.94-23.94,7.94s-23.7-5.58-23.94-7.94"/><path class="cls-3" d="M168,184c-14.47,0-24.68-5.37-25.09-9l2.23-.25c.21,1.38,8.09,6.94,22.86,6.94s22.65-5.57,22.86-6.94l2.23.25C192.73,178.57,182.5,184,168,184Z"/><path class="cls-3" d="M192,192.22c-.28,2.5-8.86,8.33-24.1,8.33s-23.53-5.7-23.83-8.2a1.32,1.32,0,0,1,0-.13"/><path class="cls-3" d="M167.93,201.67c-15.71,0-24.59-6-25-9.19v-.27h1.12l1.11-.19v.22c.16,1.5,7.6,7.18,22.72,7.18s22.81-5.83,23-7.33l2.23.25C192.77,195.6,183.8,201.67,167.93,201.67Z"/><path class="cls-3" d="M192,210.92c-.28,2.5-8.86,8.33-24.1,8.33s-23.53-5.71-23.83-8.21a1.27,1.27,0,0,1,0-.13"/><path class="cls-3" d="M167.93,220.35c-15.71,0-24.59-6-25-9.19v-.25h1.12l1.11-.19v.22c.16,1.5,7.6,7.18,22.72,7.18s22.81-5.83,23-7.33l2.23.25C192.77,214.28,183.8,220.35,167.93,220.35Z"/><rect class="cls-3" x="115.65" y="167.14" width="21.15" height="69.01" transform="translate(-1.3 0.82) rotate(-0.37)"/><path class="cls-3" d="M138.17,237.2l-23.47.15-.46-71.25,23.47-.15ZM117,235.09l18.92-.12-.43-66.77-18.92.12Z"/><path class="cls-4" d="M126.25,184a3.75,3.75,0,1,1,3.75-3.75A3.75,3.75,0,0,1,126.25,184Zm0-5.28a1.5,1.5,0,1,0,1.5,1.5,1.5,1.5,0,0,0-1.5-1.5h0Z"/></svg>