<svg id="Layer_1" data-name="Layer 1" xmlns="http://www.w3.org/2000/svg" viewBox="0 0 321.76 339.65"><defs><style>.cls-1{fill:none;stroke:#fff;stroke-miterlimit:10;stroke-width:2.3px;}.cls-2{fill:#fff;}</style></defs><title>Hex</title><path class="cls-1" d="M170.6,27.42,280.41,90.79a15.15,15.15,0,0,1,7.52,13.12V230.72a15.15,15.15,0,0,1-7.52,13.12L170.6,307.21a15.15,15.15,0,0,1-15.15,0L45.64,243.84a15.15,15.15,0,0,1-7.54-13.12V103.91a15.15,15.15,0,0,1,7.52-13.12L155.44,27.42A15.15,15.15,0,0,1,170.6,27.42Z"/><path class="cls-2" d="M78,169.65q0-9.47,6-15.52t15.42-6q7.44,0,11.69,3.05t4.25,6a4.13,4.13,0,0,1-1.34,3.14,6.74,6.74,0,0,1-2.66,1.64q-1.31.38-1.44.13a11,11,0,0,0-4.27-4.21,11.79,11.79,0,0,0-5.86-1.53A11.22,11.22,0,0,0,91.06,160a15.21,15.21,0,0,0,0,19.19,11.27,11.27,0,0,0,8.67,3.72,11.86,11.86,0,0,0,6.34-1.69,9.62,9.62,0,0,0,4-4.69q.13-.25,1.5.13a6.94,6.94,0,0,1,2.75,1.63,4,4,0,0,1,1.38,3.13q0,3.17-4.42,6.46T99.2,191.18q-9.41,0-15.33-6T78,169.65Z"/><path class="cls-2" d="M121.08,186.3V146.86c0-.12.15-.26.44-.41a5.85,5.85,0,0,1,1.28-.41,7.63,7.63,0,0,1,1.66-.19q5.63,0,5.66,7.22V186.3q0,4.28-4,4.28h-1Q121.08,190.58,121.08,186.3Z"/><path class="cls-2" d="M135.45,174.76a15.76,15.76,0,0,1,4.67-11.8,16.61,16.61,0,0,1,12.11-4.56,15.76,15.76,0,0,1,16.56,16.5q0,7.33-4.62,11.81t-12.06,4.47q-7.44,0-12-4.53T135.45,174.76Zm7.94,0a9.42,9.42,0,0,0,2.5,6.75,8.29,8.29,0,0,0,6.28,2.64,8.14,8.14,0,0,0,6.23-2.64,9.35,9.35,0,0,0,2.45-6.63,9.63,9.63,0,0,0-2.45-6.78,8.09,8.09,0,0,0-6.23-2.67,8.29,8.29,0,0,0-6.28,2.64A9.34,9.34,0,0,0,143.39,174.76Z"/><path class="cls-2" d="M173.7,178.24V163.15q0-4.34,4-4.37h1q4.09,0,4.09,4.41V177a7.44,7.44,0,0,0,1.53,5,5.41,5.41,0,0,0,4.38,1.81,7.15,7.15,0,0,0,6.72-4.12v-16.5q0-4.38,4-4.41h.88q4.11,0,4.11,4.38v26.41q0,.19-.44.42a5.26,5.26,0,0,1-1.29.42,7.67,7.67,0,0,1-1.66.19q-4.55,0-5.46-4.8a11.88,11.88,0,0,1-10.25,5.4q-5.81,0-8.7-3.59A14.45,14.45,0,0,1,173.7,178.24Z"/><path class="cls-2" d="M209.45,174.93q0-7.51,4-12A13.49,13.49,0,0,1,224,158.4a12.82,12.82,0,0,1,5.89,1.34,10.65,10.65,0,0,1,4.11,3.51V147q0-.19.44-.41a5.88,5.88,0,0,1,1.29-.41,7.74,7.74,0,0,1,1.66-.19q5.65,0,5.64,7.19v33.1q0,4.27-4,4.27h-1q-4.11,0-4.11-4.18v-1a11,11,0,0,1-10.12,5.78,13.34,13.34,0,0,1-10.44-4.52Q209.45,182.14,209.45,174.93Zm8.72,0a9.76,9.76,0,0,0,2.23,6.66,7.3,7.3,0,0,0,5.77,2.56,8,8,0,0,0,5.56-2.08,6.84,6.84,0,0,0,2.31-5.33v-6a7.81,7.81,0,0,0-7.75-5,7.5,7.5,0,0,0-5.92,2.5A9.7,9.7,0,0,0,218.17,174.93Z"/></svg>