<svg id="Layer_1" data-name="Layer 1" xmlns="http://www.w3.org/2000/svg" viewBox="0 0 321.76 339.65"><defs><style>.cls-1{fill:none;stroke:#fff;stroke-miterlimit:10;stroke-width:2.3px;}.cls-2{fill:#fff;}</style></defs><title>Hex</title><path class="cls-1" d="M165.7,27.17l110,63.49a15.17,15.17,0,0,1,7.53,13.14v127A15.17,15.17,0,0,1,275.71,244l-110,63.49a15.17,15.17,0,0,1-15.17,0L40.52,244A15.17,15.17,0,0,1,33,230.83v-127a15.17,15.17,0,0,1,7.53-13.14l110-63.49A15.17,15.17,0,0,1,165.7,27.17Z"/><path class="cls-2" d="M238.74,226H148.07a1.12,1.12,0,0,1-1.12-1.12h0V198a1.12,1.12,0,0,1,1.12-1.12h90.67a1.12,1.12,0,0,1,1.12,1.12h0v26.87A1.12,1.12,0,0,1,238.74,226Zm-89.55-2.25h88.44V199.18H149.2v24.62Z"/><path class="cls-2" d="M164.83,215.93a4.52,4.52,0,1,1,4.52-4.52A4.52,4.52,0,0,1,164.83,215.93Zm0-6.69a2.23,2.23,0,1,0,2.23,2.23,2.23,2.23,0,0,0-2.23-2.23Z"/><path class="cls-2" d="M238.74,189.07H148.07A1.12,1.12,0,0,1,147,188V161.09a1.12,1.12,0,0,1,1.12-1.08h90.67a1.12,1.12,0,0,1,1.12,1.12h0V188A1.12,1.12,0,0,1,238.74,189.07Zm-89.54-2.25h88.44V162.21H149.2Z"/><path class="cls-2" d="M164.83,179a4.52,4.52,0,1,1,4.52-4.52A4.52,4.52,0,0,1,164.83,179Zm0-6.69a2.23,2.23,0,1,0,2.23,2.23,2.23,2.23,0,0,0-2.23-2.23h0Z"/><path class="cls-2" d="M109.22,157.88H92.75a1.12,1.12,0,1,1,0-2.25h16.47a1.12,1.12,0,1,1,0,2.25Z"/><path class="cls-2" d="M100.83,157.88a1.12,1.12,0,0,1-1.12-1.12V146.61a1.12,1.12,0,1,1,2.25,0h0v10.14a1.12,1.12,0,0,1-1.1,1.13Z"/><path class="cls-2" d="M171.52,129.48a6.36,6.36,0,1,1,6.36-6.36A6.36,6.36,0,0,1,171.52,129.48Zm0-10.55a4.13,4.13,0,1,0,4.13,4.13h0a4.13,4.13,0,0,0-4.13-4.07Z"/><path class="cls-2" d="M122.82,147.74H79.12a2.8,2.8,0,0,1-2.76-2.8V111.35a2.8,2.8,0,0,1,2.8-2.8h43.7a2.8,2.8,0,0,1,2.79,2.8v33.59a2.8,2.8,0,0,1-2.8,2.8Zm-43.7-36.93a.56.56,0,0,0-.56.56v33.57a.56.56,0,0,0,.56.56h43.7a.56.56,0,0,0,.56-.56h0V111.35a.56.56,0,0,0-.56-.56H79.12Z"/><path class="cls-2" d="M124.49,141H77.43a1.12,1.12,0,1,1,0-2.25h47a1.12,1.12,0,0,1,0,2.25Z"/><path class="cls-2" d="M162.39,124.23h-.86a1.12,1.12,0,1,1,0-2.25h.86a1.12,1.12,0,1,1,0,2.25Zm-4.22,0h-.87a1.12,1.12,0,0,1,0-2.25h.86a1.12,1.12,0,1,1,0,2.25Zm-4.22,0h-.87a1.12,1.12,0,1,1,0-2.25h.86a1.12,1.12,0,1,1,0,2.25Zm-4.22,0h-.87a1.12,1.12,0,1,1,0-2.25h.9a1.12,1.12,0,0,1,0,2.25Zm-4.22,0h-.89a1.12,1.12,0,0,1,0-2.25h.86a1.12,1.12,0,1,1,0,2.25h0Zm-4.22,0h-.89a1.12,1.12,0,1,1,0-2.25h.86a1.12,1.12,0,0,1,0,2.25h0Zm-4.22,0h-.87a1.12,1.12,0,1,1,0-2.25h.86a1.12,1.12,0,0,1,0,2.25Zm-4.22,0h-.9a1.12,1.12,0,1,1,0-2.25h.86a1.12,1.12,0,0,1,0,2.25h0Z"/><path class="cls-2" d="M171.52,155.35a1.12,1.12,0,0,1-1.12-1.12v-.71a1.12,1.12,0,1,1,2.25,0h0v.71a1.12,1.12,0,0,1-1.11,1.12Zm0-4.07a1.12,1.12,0,0,1-1.12-1.12v-.71a1.12,1.12,0,0,1,2.25,0v.71a1.12,1.12,0,0,1-1.12,1.12Zm0-4.07a1.12,1.12,0,0,1-1.12-1.12v-.71a1.12,1.12,0,0,1,2.25,0v.71a1.12,1.12,0,0,1-1.12,1.12Zm0-4.07A1.12,1.12,0,0,1,170.4,142v-.71a1.12,1.12,0,1,1,2.25,0V142a1.12,1.12,0,0,1-1.12,1.12h0Zm0-4.07A1.12,1.12,0,0,1,170.4,138v-.71a1.12,1.12,0,1,1,2.25,0V138a1.12,1.12,0,0,1-1.12,1.12h0Zm0-4.07a1.12,1.12,0,0,1-1.12-1.12v-.71a1.12,1.12,0,1,1,2.25,0h0v.71a1.12,1.12,0,0,1-1.1,1.13h0Z"/><path class="cls-2" d="M101,200a6.36,6.36,0,1,1,6.36-6.36A6.36,6.36,0,0,1,101,200Zm0-10.55a4.13,4.13,0,1,0,4.13,4.13h0a4.13,4.13,0,0,0-4.13-4.07Z"/><path class="cls-2" d="M100.83,184.55a1.12,1.12,0,0,1-1.12-1.12v-.71a1.12,1.12,0,1,1,2.25,0h0v.71a1.12,1.12,0,0,1-1.11,1.12Zm0-4.07a1.12,1.12,0,0,1-1.12-1.12v-.71a1.12,1.12,0,0,1,2.25,0v.71a1.12,1.12,0,0,1-1.12,1.12Zm0-4.07a1.12,1.12,0,0,1-1.12-1.12v-.71a1.12,1.12,0,0,1,2.25,0v.71a1.12,1.12,0,0,1-1.12,1.12Zm0-4.07a1.12,1.12,0,0,1-1.12-1.12v-.71a1.12,1.12,0,1,1,2.25,0v.71a1.12,1.12,0,0,1-1.12,1.12h0Zm0-4.07a1.12,1.12,0,0,1-1.12-1.12v-.71a1.12,1.12,0,1,1,2.25,0v.71a1.12,1.12,0,0,1-1.12,1.12h0Zm0-4.07a1.12,1.12,0,0,1-1.12-1.12v-.71a1.12,1.12,0,1,1,2.25,0h0v.71a1.12,1.12,0,0,1-1.1,1.13h0Z"/><path class="cls-2" d="M142.34,194.66h-.86a1.12,1.12,0,1,1,0-2.25h.86a1.12,1.12,0,1,1,0,2.25Zm-4.22,0h-.87a1.12,1.12,0,0,1,0-2.25h.86a1.12,1.12,0,1,1,0,2.25Zm-4.22,0H133a1.12,1.12,0,1,1,0-2.25h.86a1.12,1.12,0,1,1,0,2.25Zm-4.22,0h-.87a1.12,1.12,0,1,1,0-2.25h.9a1.12,1.12,0,0,1,0,2.25Zm-4.22,0h-.89a1.12,1.12,0,0,1,0-2.25h.86a1.12,1.12,0,0,1,0,2.25h0Zm-4.22,0h-.89a1.12,1.12,0,1,1,0-2.25h.86a1.12,1.12,0,0,1,0,2.25h0Zm-4.22,0h-.87a1.12,1.12,0,1,1,0-2.25H117a1.12,1.12,0,0,1,0,2.25Zm-4.22,0h-.9a1.12,1.12,0,1,1,0-2.25h.86a1.12,1.12,0,0,1,0,2.25h0Z"/></svg>