<svg xmlns="http://www.w3.org/2000/svg" viewBox="0 0 321.76 339.65"><defs><style>.cls-1{fill:none;stroke:#fff;stroke-miterlimit:10;stroke-width:2px;}.cls-2{fill:#fff;}</style></defs><title>Artboard 1</title><g id="Layer_2" data-name="Layer 2"><path class="cls-1" d="M167.56,32.18l110,63.48a15.17,15.17,0,0,1,7.53,13.14v127a15.17,15.17,0,0,1-7.53,13.2l-110,63.48a15.17,15.17,0,0,1-15.17,0L42.39,249a15.17,15.17,0,0,1-7.55-13.14v-127a15.17,15.17,0,0,1,7.53-13.14l110-63.48A15.17,15.17,0,0,1,167.56,32.18Z"/></g><g id="Layer_1" data-name="Layer 1"><g id="g20"><path id="path22" class="cls-2" d="M185.52,219.45l-17,29.55H124a11.08,11.08,0,0,1-9.61-5.57l-36-62.79a11.08,11.08,0,0,1,0-11l13.7-23.89L109,175.13l25.5,44.32Z"/></g><g id="g24"><path id="path26" class="cls-2" d="M245,180.64l-36,62.79a11.08,11.08,0,0,1-9.61,5.57H171.91l17-29.55,25.51-44.33L188.91,130.8h33.87L245,169.61a11.08,11.08,0,0,1,0,11"/></g><g id="g28"><path id="path30" class="cls-2" d="M221.09,127.65H136.2L110.7,172l-16.92-29.4,22.31-38.9a11.08,11.08,0,0,1,9.61-5.57h72a11.08,11.08,0,0,1,9.61,5.57Z"/></g><circle class="cls-2" cx="161.01" cy="173.65" r="20.34"/></g></svg>