<svg id="Layer_1" data-name="Layer 1" xmlns="http://www.w3.org/2000/svg" viewBox="0 0 321.76 339.65"><defs><style>.cls-1{fill:none;stroke:#fff;stroke-miterlimit:10;stroke-width:2.3px;}.cls-2{fill:#fff;}</style></defs><title>Hex</title><path class="cls-1" d="M168.45,27.27,278.38,90.71a15.16,15.16,0,0,1,7.53,13.13V230.78a15.16,15.16,0,0,1-7.53,13.13L168.45,307.35a15.16,15.16,0,0,1-15.16,0L43.37,243.91a15.16,15.16,0,0,1-7.54-13.13V103.84c0-5.41,2.86-10.41,10.79-15L156.53,25.39C158,24.56,163.76,24.56,168.45,27.27Z"/><polygon class="cls-2" points="105.21 159.38 105.21 184.48 115.98 184.48 115.98 159.38 105.21 159.38 105.21 159.38"/><polygon class="cls-2" points="218.51 165.93 203.45 184.48 216.7 184.48 225.34 171.66 233.5 184.48 248.14 184.48 233.14 165.61 247.66 149 234.29 149 226.61 159.38 218.94 149 204.79 149 218.51 165.93 218.51 165.93"/><path class="cls-2" d="M163.73,149v22.35a12.21,12.21,0,0,0,2.35,7.3,15.16,15.16,0,0,0,6.6,5.07,24.89,24.89,0,0,0,9.86,1.88,28.79,28.79,0,0,0,11-1.84,13.15,13.15,0,0,0,6.41-5.12,14.35,14.35,0,0,0,2-7.69V149H190.83v20.45a13.46,13.46,0,0,1-.75,4.83,5.81,5.81,0,0,1-2.56,3,9.92,9.92,0,0,1-5,1.05q-7.53,0-7.53-8.57V149Z"/><polygon class="cls-2" points="120.81 149 120.81 184.48 130.58 184.48 130.58 157.8 143.84 184.48 159.44 184.48 159.44 149 149.47 149 149.47 175.26 136.28 149 120.81 149 120.81 149"/><polygon class="cls-2" points="105.21 149 105.21 155.16 115.98 155.16 115.98 149 105.21 149 105.21 149"/><polygon class="cls-2" points="73.61 149 73.61 184.48 102.46 184.48 102.46 177.16 84.85 177.16 84.85 149 73.61 149 73.61 149"/></svg>