<?xml version="1.0" encoding="utf-8"?>
<!-- Generator: Adobe Illustrator 21.1.0, SVG Export Plug-In . SVG Version: 6.00 Build 0)  -->
<svg version="1.1" id="Layer_1" xmlns="http://www.w3.org/2000/svg" xmlns:xlink="http://www.w3.org/1999/xlink" x="0px" y="0px"
	 viewBox="0 0 105.9 149.1" style="enable-background:new 0 0 105.9 149.1;" xml:space="preserve">
<style type="text/css">
	.st0{fill:#FFFFFF;}
	.st1{fill:#3F94D0;}
</style>
<g id="XMLID_2551_">
	<g>
		<polygon class="st0" points="105.9,120.6 105.9,146.9 55,111 73.5,98.1 		"/>
		<polygon class="st0" points="105.9,0 105.9,25.6 70.2,50.8 51.4,37.8 		"/>
		<polygon class="st1" points="105.9,75.6 73.5,98.1 54.3,84.7 67.4,75.5 51.3,64.1 70.2,50.8 		"/>
		<polygon class="st0" points="54.3,84.7 73.5,98.1 55,111 36,97.6 		"/>
		<polygon class="st0" points="51.4,37.8 70.2,50.8 51.3,64.1 32.6,50.9 		"/>
		<polygon class="st1" points="36,97.6 55,111 0,149.1 0,123 		"/>
		<polygon class="st0" points="54.3,84.7 36,97.6 0.9,72.9 32.6,50.9 51.3,64.1 38.1,73.4 		"/>
		<polygon class="st1" points="51.4,37.8 32.6,50.9 0,27.8 0,2.2 		"/>
	</g>
</g>
</svg>
